<svg width="32" height="32" viewBox="0 0 32 32" xmlns="http://www.w3.org/2000/svg">
  <!-- Dark background -->
  <rect width="32" height="32" fill="#0a0a0a"/>
  
  <!-- Godzilla head/spikes -->
  <polygon points="16,4 18,6 20,4 22,6 24,4 22,8 20,6 18,8 16,6 14,8 12,6 10,8 8,4 10,6 12,4 14,6" fill="#ff6500"/>
  
  <!-- Main body -->
  <rect x="12" y="8" width="8" height="14" rx="2" fill="#ff4500"/>
  
  <!-- Arms -->
  <ellipse cx="9" cy="14" rx="2" ry="4" fill="#ff6500"/>
  <ellipse cx="23" cy="14" rx="2" ry="4" fill="#ff6500"/>
  
  <!-- Legs -->
  <rect x="11" y="22" width="4" height="8" rx="2" fill="#ff6500"/>
  <rect x="17" y="22" width="4" height="8" rx="2" fill="#ff6500"/>
  
  <!-- Eyes (glowing)-->
  <circle cx="14" cy="12" r="1.5" fill="#ffaa00"/>
  <circle cx="18" cy="12" r="1.5" fill="#ffaa00"/>
  
  <!-- Atomic breath -->
  <path d="M16 16 Q12 18 8 22" stroke="#00ff88" stroke-width="2" fill="none" opacity="0.9"/>
  <path d="M16 16 Q20 18 24 22" stroke="#00ff88" stroke-width="2" fill="none" opacity="0.9"/>
  <circle cx="16" cy="16" r="1" fill="#00ff88" opacity="0.8"/>
</svg>
