<svg width="32" height="32" viewBox="0 0 32 32" xmlns="http://www.w3.org/2000/svg">
  <!-- Background circle -->
  <circle cx="16" cy="16" r="16" fill="#1a1a1a"/>
  
  <!-- Godzilla silhouette -->
  <path d="M16 6 L18 8 L20 6 L22 8 L20 10 L18 8 L16 10 L14 8 L12 10 L10 8 L12 6 L14 8 Z" fill="#ff6500"/>
  
  <!-- Body -->
  <rect x="13" y="10" width="6" height="12" rx="1" fill="#ff6500"/>
  
  <!-- Arms -->
  <rect x="10" y="12" width="3" height="6" rx="1" fill="#ff4500"/>
  <rect x="19" y="12" width="3" height="6" rx="1" fill="#ff4500"/>
  
  <!-- Legs -->
  <rect x="12" y="22" width="3" height="6" rx="1" fill="#ff4500"/>
  <rect x="17" y="22" width="3" height="6" rx="1" fill="#ff4500"/>
  
  <!-- Eyes -->
  <circle cx="14.5" cy="13" r="1" fill="#ffaa00"/>
  <circle cx="17.5" cy="13" r="1" fill="#ffaa00"/>
  
  <!-- Atomic breath effect -->
  <path d="M16 15 L14 17 L12 19 L10 21" stroke="#00ff88" stroke-width="1.5" fill="none" opacity="0.8"/>
  <path d="M16 15 L18 17 L20 19 L22 21" stroke="#00ff88" stroke-width="1.5" fill="none" opacity="0.8"/>
</svg>
